<svg fill="#ffffff" version="1.1" id="Layer_1" xmlns="http://www.w3.org/2000/svg" xmlns:xlink="http://www.w3.org/1999/xlink" viewBox="0 0 512 512" enable-background="new 0 0 512 512" xml:space="preserve" stroke="#ffffff"><g id="SVGRepo_bgCarrier" stroke-width="0"></g><g id="SVGRepo_tracerCarrier" stroke-linecap="round" stroke-linejoin="round"></g><g id="SVGRepo_iconCarrier"> <path d="M256,0C114.609,0,0,114.609,0,256s114.609,256,256,256s256-114.609,256-256S397.391,0,256,0z M256,472 c-119.297,0-216-96.703-216-216S136.703,40,256,40s216,96.703,216,216S375.297,472,256,472z"></path> <path fill-rule="evenodd" clip-rule="evenodd" d="M316.75,216.812h-44.531v-32.5c0-9.969,10.312-12.281,15.125-12.281 c4.781,0,28.766,0,28.766,0v-43.859L283.141,128c-44.984,0-55.25,32.703-55.25,53.672v35.141H195.25V262h32.641 c0,58.016,0,122,0,122h44.328c0,0,0-64.641,0-122h37.656L316.75,216.812z"></path> </g></svg>